<mxfile host="app.diagrams.net" modified="2023-08-25T14:36:12.256Z" agent="Mozilla/5.0 (X11; Linux x86_64; rv:103.0) Gecko/20100101 Firefox/103.0" etag="MnO6t-00rD8eaQG44jO-" version="21.6.9" type="github">
  <diagram name="PÃ¡gina-1" id="P0T6h4vq4KPGOLYwKIOh">
    <mxGraphModel dx="1434" dy="673" grid="1" gridSize="10" guides="1" tooltips="1" connect="1" arrows="1" fold="1" page="1" pageScale="1" pageWidth="827" pageHeight="1169" math="0" shadow="0">
      <root>
        <mxCell id="0" />
        <mxCell id="1" parent="0" />
        <mxCell id="GGqFCwOCi9_lvGJycpzo-12" style="edgeStyle=orthogonalEdgeStyle;rounded=0;orthogonalLoop=1;jettySize=auto;html=1;" edge="1" parent="1" source="GGqFCwOCi9_lvGJycpzo-1" target="GGqFCwOCi9_lvGJycpzo-8">
          <mxGeometry relative="1" as="geometry" />
        </mxCell>
        <mxCell id="GGqFCwOCi9_lvGJycpzo-1" value="ESCOLA" style="swimlane;whiteSpace=wrap;html=1;" vertex="1" parent="1">
          <mxGeometry x="70" y="240" width="160" height="60" as="geometry" />
        </mxCell>
        <mxCell id="GGqFCwOCi9_lvGJycpzo-29" style="edgeStyle=orthogonalEdgeStyle;rounded=0;orthogonalLoop=1;jettySize=auto;html=1;entryX=0;entryY=0.5;entryDx=0;entryDy=0;" edge="1" parent="1" source="GGqFCwOCi9_lvGJycpzo-2" target="GGqFCwOCi9_lvGJycpzo-11">
          <mxGeometry relative="1" as="geometry" />
        </mxCell>
        <mxCell id="GGqFCwOCi9_lvGJycpzo-2" value="AULAS" style="swimlane;whiteSpace=wrap;html=1;" vertex="1" parent="1">
          <mxGeometry x="414" y="545" width="160" height="60" as="geometry" />
        </mxCell>
        <mxCell id="GGqFCwOCi9_lvGJycpzo-3" value="SALA" style="swimlane;whiteSpace=wrap;html=1;" vertex="1" parent="1">
          <mxGeometry x="240" y="395" width="160" height="60" as="geometry" />
        </mxCell>
        <mxCell id="GGqFCwOCi9_lvGJycpzo-28" style="edgeStyle=orthogonalEdgeStyle;rounded=0;orthogonalLoop=1;jettySize=auto;html=1;entryX=0.5;entryY=0;entryDx=0;entryDy=0;" edge="1" parent="1" source="GGqFCwOCi9_lvGJycpzo-4" target="GGqFCwOCi9_lvGJycpzo-11">
          <mxGeometry relative="1" as="geometry" />
        </mxCell>
        <mxCell id="GGqFCwOCi9_lvGJycpzo-4" value="PROFESSORES" style="swimlane;whiteSpace=wrap;html=1;" vertex="1" parent="1">
          <mxGeometry x="645" y="410" width="160" height="60" as="geometry" />
        </mxCell>
        <mxCell id="GGqFCwOCi9_lvGJycpzo-14" style="edgeStyle=orthogonalEdgeStyle;rounded=0;orthogonalLoop=1;jettySize=auto;html=1;entryX=0;entryY=0.5;entryDx=0;entryDy=0;" edge="1" parent="1" source="GGqFCwOCi9_lvGJycpzo-5" target="GGqFCwOCi9_lvGJycpzo-9">
          <mxGeometry relative="1" as="geometry" />
        </mxCell>
        <mxCell id="GGqFCwOCi9_lvGJycpzo-30" style="edgeStyle=orthogonalEdgeStyle;rounded=0;orthogonalLoop=1;jettySize=auto;html=1;exitX=0.5;exitY=1;exitDx=0;exitDy=0;" edge="1" parent="1" source="GGqFCwOCi9_lvGJycpzo-5" target="GGqFCwOCi9_lvGJycpzo-10">
          <mxGeometry relative="1" as="geometry" />
        </mxCell>
        <mxCell id="GGqFCwOCi9_lvGJycpzo-5" value="TURMA" style="swimlane;whiteSpace=wrap;html=1;" vertex="1" parent="1">
          <mxGeometry x="450" y="240" width="160" height="60" as="geometry" />
        </mxCell>
        <mxCell id="GGqFCwOCi9_lvGJycpzo-13" style="edgeStyle=orthogonalEdgeStyle;rounded=0;orthogonalLoop=1;jettySize=auto;html=1;entryX=0;entryY=0.5;entryDx=0;entryDy=0;" edge="1" parent="1" source="GGqFCwOCi9_lvGJycpzo-8" target="GGqFCwOCi9_lvGJycpzo-5">
          <mxGeometry relative="1" as="geometry" />
        </mxCell>
        <mxCell id="GGqFCwOCi9_lvGJycpzo-8" value="&lt;font size=&quot;1&quot;&gt;&lt;b style=&quot;font-size: 14px;&quot;&gt;TER&lt;/b&gt;&lt;/font&gt;" style="rhombus;whiteSpace=wrap;html=1;" vertex="1" parent="1">
          <mxGeometry x="300" y="235" width="90" height="70" as="geometry" />
        </mxCell>
        <mxCell id="GGqFCwOCi9_lvGJycpzo-15" style="edgeStyle=orthogonalEdgeStyle;rounded=0;orthogonalLoop=1;jettySize=auto;html=1;entryX=0.5;entryY=0;entryDx=0;entryDy=0;" edge="1" parent="1" source="GGqFCwOCi9_lvGJycpzo-9" target="GGqFCwOCi9_lvGJycpzo-4">
          <mxGeometry relative="1" as="geometry" />
        </mxCell>
        <mxCell id="GGqFCwOCi9_lvGJycpzo-9" value="&lt;font size=&quot;1&quot;&gt;&lt;b style=&quot;font-size: 14px;&quot;&gt;TER&lt;/b&gt;&lt;/font&gt;" style="rhombus;whiteSpace=wrap;html=1;" vertex="1" parent="1">
          <mxGeometry x="680" y="235" width="90" height="70" as="geometry" />
        </mxCell>
        <mxCell id="GGqFCwOCi9_lvGJycpzo-31" style="edgeStyle=orthogonalEdgeStyle;rounded=0;orthogonalLoop=1;jettySize=auto;html=1;exitX=0;exitY=0.5;exitDx=0;exitDy=0;entryX=1;entryY=0.5;entryDx=0;entryDy=0;" edge="1" parent="1" source="GGqFCwOCi9_lvGJycpzo-10" target="GGqFCwOCi9_lvGJycpzo-3">
          <mxGeometry relative="1" as="geometry" />
        </mxCell>
        <mxCell id="GGqFCwOCi9_lvGJycpzo-10" value="&lt;font size=&quot;1&quot;&gt;&lt;b style=&quot;font-size: 14px;&quot;&gt;TER&lt;/b&gt;&lt;/font&gt;" style="rhombus;whiteSpace=wrap;html=1;" vertex="1" parent="1">
          <mxGeometry x="485" y="390" width="90" height="70" as="geometry" />
        </mxCell>
        <mxCell id="GGqFCwOCi9_lvGJycpzo-11" value="&lt;font size=&quot;1&quot;&gt;&lt;b style=&quot;font-size: 14px;&quot;&gt;TER&lt;/b&gt;&lt;/font&gt;" style="rhombus;whiteSpace=wrap;html=1;" vertex="1" parent="1">
          <mxGeometry x="680" y="540" width="90" height="70" as="geometry" />
        </mxCell>
        <mxCell id="GGqFCwOCi9_lvGJycpzo-22" value="&lt;font style=&quot;font-size: 18px;&quot;&gt;&lt;b&gt;N&lt;/b&gt;&lt;/font&gt;" style="text;html=1;strokeColor=none;fillColor=none;align=center;verticalAlign=middle;whiteSpace=wrap;rounded=0;" vertex="1" parent="1">
          <mxGeometry x="240" y="240" width="60" height="30" as="geometry" />
        </mxCell>
        <mxCell id="GGqFCwOCi9_lvGJycpzo-24" value="&lt;font style=&quot;font-size: 18px;&quot;&gt;&lt;b&gt;N&lt;/b&gt;&lt;/font&gt;" style="text;html=1;strokeColor=none;fillColor=none;align=center;verticalAlign=middle;whiteSpace=wrap;rounded=0;" vertex="1" parent="1">
          <mxGeometry x="610" y="240" width="60" height="30" as="geometry" />
        </mxCell>
        <mxCell id="GGqFCwOCi9_lvGJycpzo-25" value="&lt;font style=&quot;font-size: 18px;&quot;&gt;&lt;b&gt;N&lt;/b&gt;&lt;/font&gt;" style="text;html=1;strokeColor=none;fillColor=none;align=center;verticalAlign=middle;whiteSpace=wrap;rounded=0;" vertex="1" parent="1">
          <mxGeometry x="670" y="340" width="60" height="30" as="geometry" />
        </mxCell>
        <mxCell id="GGqFCwOCi9_lvGJycpzo-27" value="&lt;font style=&quot;font-size: 18px;&quot;&gt;&lt;b&gt;1&lt;/b&gt;&lt;/font&gt;" style="text;html=1;strokeColor=none;fillColor=none;align=center;verticalAlign=middle;whiteSpace=wrap;rounded=0;" vertex="1" parent="1">
          <mxGeometry x="380" y="240" width="60" height="30" as="geometry" />
        </mxCell>
        <mxCell id="GGqFCwOCi9_lvGJycpzo-32" value="&lt;font style=&quot;font-size: 18px;&quot;&gt;&lt;b&gt;N&lt;/b&gt;&lt;/font&gt;" style="text;html=1;strokeColor=none;fillColor=none;align=center;verticalAlign=middle;whiteSpace=wrap;rounded=0;" vertex="1" parent="1">
          <mxGeometry x="414" y="390" width="60" height="30" as="geometry" />
        </mxCell>
        <mxCell id="GGqFCwOCi9_lvGJycpzo-33" value="&lt;font style=&quot;font-size: 18px;&quot;&gt;&lt;b&gt;1&lt;/b&gt;&lt;/font&gt;" style="text;html=1;strokeColor=none;fillColor=none;align=center;verticalAlign=middle;whiteSpace=wrap;rounded=0;" vertex="1" parent="1">
          <mxGeometry x="485" y="330" width="60" height="30" as="geometry" />
        </mxCell>
        <mxCell id="GGqFCwOCi9_lvGJycpzo-34" value="&lt;font style=&quot;font-size: 18px;&quot;&gt;&lt;b&gt;N&lt;/b&gt;&lt;/font&gt;" style="text;html=1;strokeColor=none;fillColor=none;align=center;verticalAlign=middle;whiteSpace=wrap;rounded=0;" vertex="1" parent="1">
          <mxGeometry x="600" y="545" width="60" height="30" as="geometry" />
        </mxCell>
        <mxCell id="GGqFCwOCi9_lvGJycpzo-35" value="&lt;font style=&quot;font-size: 18px;&quot;&gt;&lt;b&gt;1&lt;/b&gt;&lt;/font&gt;" style="text;html=1;strokeColor=none;fillColor=none;align=center;verticalAlign=middle;whiteSpace=wrap;rounded=0;" vertex="1" parent="1">
          <mxGeometry x="680" y="490" width="60" height="30" as="geometry" />
        </mxCell>
      </root>
    </mxGraphModel>
  </diagram>
</mxfile>
